<svg width="32" height="32" viewBox="0 0 32 32" xmlns="http://www.w3.org/2000/svg">
  <!-- Background circle with gradient -->
  <defs>
    <linearGradient id="bgGradient32" x1="0%" y1="0%" x2="100%" y2="100%">
      <stop offset="0%" stop-color="#87CEEB"/>
      <stop offset="100%" stop-color="#5A9FD4"/>
    </linearGradient>
    <linearGradient id="brainGradient32" x1="0%" y1="0%" x2="100%" y2="100%">
      <stop offset="0%" stop-color="#FFFFFF"/>
      <stop offset="100%" stop-color="#F0F8FF"/>
    </linearGradient>
  </defs>
  
  <!-- Background circle -->
  <circle cx="16" cy="16" r="14" fill="url(#bgGradient32)" stroke="#4A90E2" stroke-width="1"/>
  
  <!-- Brain icon -->
  <g transform="translate(8, 7) scale(0.25)">
    <!-- Brain shape -->
    <path d="M20 25 C10 15, 8 35, 18 45 C15 50, 25 52, 30 47 C35 52, 45 50, 42 45 C52 35, 50 15, 40 25 C45 20, 35 18, 30 23 C25 18, 15 20, 20 25 Z" 
          fill="url(#brainGradient32)" 
          stroke="#2B6CB0" 
          stroke-width="2"/>
  </g>
  
  <!-- Dollar sign overlay -->
  <g transform="translate(22, 22)">
    <circle cx="0" cy="0" r="4" fill="#48BB78" stroke="#2D7738" stroke-width="1"/>
    <text x="0" y="1.5" text-anchor="middle" font-family="Arial Black" font-size="5" fill="white" font-weight="bold">$</text>
  </g>
</svg>