<svg width="48" height="48" viewBox="0 0 48 48" xmlns="http://www.w3.org/2000/svg">
  <!-- Background circle with gradient -->
  <defs>
    <linearGradient id="bgGradient48" x1="0%" y1="0%" x2="100%" y2="100%">
      <stop offset="0%" stop-color="#87CEEB"/>
      <stop offset="100%" stop-color="#5A9FD4"/>
    </linearGradient>
    <linearGradient id="brainGradient48" x1="0%" y1="0%" x2="100%" y2="100%">
      <stop offset="0%" stop-color="#FFFFFF"/>
      <stop offset="100%" stop-color="#F0F8FF"/>
    </linearGradient>
  </defs>
  
  <!-- Background circle -->
  <circle cx="24" cy="24" r="22" fill="url(#bgGradient48)" stroke="#4A90E2" stroke-width="1"/>
  
  <!-- Brain icon -->
  <g transform="translate(12, 10) scale(0.4)">
    <!-- Brain shape -->
    <path d="M20 25 C10 15, 8 35, 18 45 C15 50, 25 52, 30 47 C35 52, 45 50, 42 45 C52 35, 50 15, 40 25 C45 20, 35 18, 30 23 C25 18, 15 20, 20 25 Z" 
          fill="url(#brainGradient48)" 
          stroke="#2B6CB0" 
          stroke-width="1.5"/>
    
    <!-- Brain folds -->
    <path d="M15 30 C20 28, 25 32, 30 30" stroke="#5A9FD4" stroke-width="1" fill="none"/>
    <path d="M30 35 C35 33, 40 37, 45 35" stroke="#5A9FD4" stroke-width="1" fill="none"/>
  </g>
  
  <!-- Dollar sign overlay -->
  <g transform="translate(32, 32)">
    <circle cx="0" cy="0" r="6" fill="#48BB78" stroke="#2D7738" stroke-width="1"/>
    <text x="0" y="2" text-anchor="middle" font-family="Arial Black" font-size="7" fill="white" font-weight="bold">$</text>
  </g>
  
  <!-- Light rays -->
  <g stroke="#FFD700" stroke-width="1" opacity="0.5">
    <line x1="24" y1="4" x2="24" y2="7"/>
    <line x1="24" y1="41" x2="24" y2="44"/>
    <line x1="4" y1="24" x2="7" y2="24"/>
    <line x1="41" y1="24" x2="44" y2="24"/>
  </g>
</svg>